PathFileType  4	(X/Y/Z) C:\Users\antoi\Documents\MyRepositories\mobilecap\ResultsAnalysis
DataRate	CameraRate	NumFrames	NumMarkers	Units	OrigDataRate	OrigDataStartFrame	OrigNumFrames
100.0	100.0	4	51	mm	100.0	826	1321
Frame#	Time	r_knee			r_shank_antsup			r_ankle			r_calc			r_5meta			r_toe			L_knee			L_shank_antsup			L_ankle			L_calc			L_5meta			L_toe			r_sh2			r_sh3			r_sh4			L_sh2			L_sh3			r_thigh1			r_thigh2			r_thigh3			r_thigh4			r_thigh5			L_thigh1			L_thigh2			L_thigh3			L_thigh4			r.ASIS			r.PSIS			L.ASIS			L.PSIS			C7			R_Shoulder			L_Shoulder			R_Sternum			L_Sternum			R_humerus			R_elbow_med			R_elbow_lat			R_forearm			R_wrist_radius			R_wrist_ulna			L_humerus			L_elbow_med			L_elbow_lat			L_forearm			L_wrist_radius			L_wrist_ulna			R_HJC			L_HJC			R_HJC_reg			L_HJC_reg			
		X1	Y1	Z1	X2	Y2	Z2	X3	Y3	Z3	X4	Y4	Z4	X5	Y5	Z5	X6	Y6	Z6	X7	Y7	Z7	X8	Y8	Z8	X9	Y9	Z9	X10	Y10	Z10	X11	Y11	Z11	X12	Y12	Z12	X13	Y13	Z13	X14	Y14	Z14	X15	Y15	Z15	X16	Y16	Z16	X17	Y17	Z17	X18	Y18	Z18	X19	Y19	Z19	X20	Y20	Z20	X21	Y21	Z21	X22	Y22	Z22	X23	Y23	Z23	X24	Y24	Z24	X25	Y25	Z25	X26	Y26	Z26	X27	Y27	Z27	X28	Y28	Z28	X29	Y29	Z29	X30	Y30	Z30	X31	Y31	Z31	X32	Y32	Z32	X33	Y33	Z33	X34	Y34	Z34	X35	Y35	Z35	X36	Y36	Z36	X37	Y37	Z37	X38	Y38	Z38	X39	Y39	Z39	X40	Y40	Z40	X41	Y41	Z41	X42	Y42	Z42	X43	Y43	Z43	X44	Y44	Z44	X45	Y45	Z45	X46	Y46	Z46	X47	Y47	Z47	X48	Y48	Z48	X49	Y49	Z49	X50	Y50	Z50	X51	Y51	Z51	

826	8.25000000	-274.16661	480.24353	-406.64374	-244.03517	421.29420	-397.12527	-283.79089	84.98505	-381.34320	-335.24923	53.27376	-427.23798	-176.22940	42.23034	-348.31301	-137.45307	64.25092	-399.35981	-262.72127	477.60143	-746.89149	-229.80722	396.34130	-747.56186	-282.90440	94.18557	-786.79911	-336.97501	52.14562	-743.78638	-182.99595	43.62258	-827.63187	-129.40227	59.10135	-776.25023	-257.99691	310.44335	-377.97982	-318.11215	435.53610	-380.97447	-338.53186	318.56311	-370.81254	-310.51954	418.77291	-780.69453	-318.44576	297.96910	-802.76554	-213.36221	732.46502	-374.18854	-215.05752	619.51216	-384.80430	-320.99871	617.72302	-415.29391	-324.27048	732.58394	-395.20810	-277.49628	597.97202	-386.66087	-195.18801	756.58862	-775.91992	-194.46533	618.07276	-759.10347	-307.06719	755.42108	-771.96813	-307.18277	620.30032	-738.32512	-164.55889	938.77628	-462.12972	-366.87084	942.68062	-546.48845	-153.20274	940.07767	-685.11603	-360.76666	944.19423	-626.67181	-319.11097	1391.83303	-577.89075	-263.31987	1364.61543	-432.66547	-253.42897	1364.19468	-719.64773	-188.45398	1340.00664	-554.92079	-187.90443	1337.08390	-588.37042	-202.44714	1276.84764	-369.04018	-146.86467	1063.09291	-361.78675	-126.86859	1097.19714	-304.81927	-38.81660	1132.66988	-309.21056	97.08195	1143.63685	-344.47626	102.59278	1109.74443	-326.99359	-204.08589	1275.45839	-787.48640	-114.53168	1067.82882	-775.80092	-106.19192	1102.94139	-832.76333	-1.32621	1122.64122	-832.93798	121.78859	1133.06909	-805.24244	124.64404	1094.32514	-816.66862	-232.38954	842.11174	-473.15330	-222.18834	845.95558	-680.37420	-224.90767	860.78116	-498.90313	-213.72351	863.55441	-645.81612	
827	8.26000000	-274.13112	480.22252	-406.57468	-244.02635	421.25741	-396.99764	-283.80709	85.02304	-381.24819	-335.27692	53.23397	-427.15662	-176.22063	42.24133	-348.30582	-137.44389	64.29239	-399.33396	-262.73125	477.59491	-746.87531	-229.84023	396.35027	-747.54398	-282.90488	94.18596	-786.80061	-336.95082	52.17459	-743.79350	-182.98981	43.64607	-827.66232	-129.38644	59.08832	-776.22260	-257.96986	310.36962	-377.95095	-318.13187	435.66113	-380.58248	-338.76474	318.23401	-370.83127	-310.53835	418.76178	-780.73937	-318.40269	297.88774	-802.79155	-213.35986	732.53054	-373.94954	-215.07657	619.42444	-384.73110	-321.03686	617.71817	-415.02449	-324.21780	732.61596	-394.96125	-277.38862	598.02309	-386.39232	-195.13438	756.55447	-775.87295	-194.44074	618.06789	-759.07400	-307.03813	755.41653	-772.00591	-307.18456	620.28743	-738.33749	-164.65545	938.73715	-462.07353	-366.92819	942.59179	-546.42729	-153.26210	940.06128	-685.03924	-360.81540	944.17962	-626.68660	-318.93334	1391.80165	-577.81931	-263.19822	1364.55122	-432.83284	-253.29453	1364.21324	-719.62985	-186.31049	1340.69833	-559.00609	-187.94659	1336.77135	-587.57591	-202.22896	1276.91693	-368.98303	-146.77638	1063.14002	-361.63580	-126.69081	1097.25451	-304.67722	-38.64691	1132.73056	-309.08557	97.21437	1143.66264	-344.43228	102.68649	1109.75710	-326.99940	-204.00093	1275.45595	-787.54054	-114.53206	1067.81778	-775.83274	-106.19522	1102.87755	-832.76651	-1.34515	1122.53525	-833.02410	121.85602	1132.81974	-805.39419	124.67481	1094.11034	-816.72350	-232.46329	842.05586	-473.12123	-222.22190	845.93948	-680.33939	-224.93579	860.65510	-498.91290	-213.74761	863.56120	-645.81074	
828	8.27000000	-274.09905	480.18721	-406.51796	-244.02433	421.23984	-396.89030	-283.83847	85.05202	-381.15144	-335.28834	53.19692	-427.08671	-176.24969	42.22972	-348.31151	-137.44155	64.33290	-399.31324	-262.74803	477.57848	-746.86001	-229.86058	396.33195	-747.53680	-282.90589	94.18247	-786.78587	-336.90928	52.20983	-743.80416	-182.98162	43.66501	-827.70180	-129.38731	59.05853	-776.20303	-257.96829	310.34396	-377.95058	-318.37053	434.97552	-380.87698	-338.99123	317.96853	-370.86427	-310.57962	418.69141	-780.68965	-318.42670	297.80637	-802.79685	-213.34278	732.55724	-373.74686	-215.08382	619.36271	-384.57895	-321.02690	617.77062	-414.56724	-324.16217	732.64636	-394.70637	-277.29418	598.04452	-386.13661	-195.13357	756.56776	-775.86086	-194.45895	618.03875	-759.00104	-307.03054	755.40095	-772.10011	-307.20773	620.26803	-738.31333	-164.76956	938.70317	-462.01641	-367.00047	942.55841	-546.35405	-153.34230	940.01773	-684.91497	-360.85609	944.15688	-626.68850	-318.74745	1391.78143	-577.79539	-263.12534	1364.45535	-433.19611	-253.12254	1364.23693	-719.66895	-185.49827	1341.30178	-560.77939	-188.10323	1336.60117	-586.49811	-202.03201	1276.99855	-368.89707	-146.71193	1063.16123	-361.55520	-126.48971	1097.36685	-304.50423	-38.46550	1132.78262	-308.98177	97.38377	1143.67714	-344.36334	102.82353	1109.74549	-326.94956	-203.87984	1275.45014	-787.57822	-114.51821	1067.78949	-775.85625	-106.17417	1102.81514	-832.75994	-1.35080	1122.40314	-833.08888	121.94899	1132.61657	-805.44424	124.70499	1093.93533	-816.73412	-232.57160	842.02315	-473.04889	-222.27992	845.90166	-680.26465	-225.04346	860.62569	-498.87263	-213.81157	863.54772	-645.72349	
829	8.28000000	-274.05085	480.14544	-406.42518	-244.01753	421.21923	-396.83119	-283.88968	85.01179	-381.08842	-335.28362	53.19408	-427.05866	-176.28451	42.22283	-348.31983	-137.46633	64.36593	-399.30480	-262.78416	477.57330	-746.83187	-229.88286	396.30467	-747.52883	-282.91685	94.17585	-786.76984	-336.90102	52.20994	-743.78792	-182.99891	43.64365	-827.67211	-129.39519	59.03235	-776.19804	-257.98469	310.32845	-377.91339	-318.71651	433.73675	-381.71743	-339.00979	317.91819	-370.81733	-310.62689	418.60003	-780.58858	-318.45666	297.80451	-802.74539	-213.27718	732.60910	-373.62105	-214.99794	619.49832	-384.26623	-320.95819	617.78729	-414.18218	-324.14640	732.66864	-394.46177	-277.25865	598.02731	-385.97897	-195.22694	756.58738	-775.78318	-194.51868	617.97089	-758.79854	-307.08186	755.35544	-772.13329	-307.25104	620.25171	-738.27617	-164.85239	938.68023	-461.97193	-367.11153	942.60898	-546.32387	-153.44089	939.93674	-684.75111	-360.91160	944.13395	-626.68056	-318.53490	1391.82375	-577.83880	-262.98664	1364.43436	-433.43966	-252.92351	1364.25266	-719.71999	-185.52769	1341.27877	-560.43782	-187.86389	1336.57541	-586.84534	-201.84440	1277.06119	-368.85636	-146.57122	1063.18804	-361.46213	-126.28989	1097.49976	-304.35136	-38.27420	1132.83654	-308.89424	97.57249	1143.67253	-344.29649	103.03859	1109.74849	-326.83693	-203.72576	1275.43796	-787.58958	-114.39302	1067.75785	-775.92119	-106.12083	1102.75711	-832.77179	-1.32039	1122.27048	-833.14073	122.05717	1132.46214	-805.44002	124.75879	1093.75703	-816.74732	-232.72041	842.02826	-472.94814	-222.37353	845.83726	-680.16244	-225.23679	860.72336	-498.78257	-213.91296	863.50872	-645.54929	
